<svg width="324" height="282" viewBox="0 0 324 282" fill="none" xmlns="http://www.w3.org/2000/svg">
<path fill-rule="evenodd" clip-rule="evenodd" d="M309.019 69.81C309.019 162.017 247.216 240.086 161.986 266.353C76.7565 240.086 14.9526 162.017 14.9526 69.81C14.9497 55.742 16.4028 41.7115 19.2888 27.9428C59.7129 60.5016 110.081 78.2115 161.986 78.1169C213.885 78.2462 264.259 60.5714 304.7 28.0425C307.575 41.779 309.022 55.7758 309.019 69.81ZM161.986 249.722C231.763 228.219 282.361 164.303 282.361 88.8146C282.363 77.3261 281.178 65.868 278.825 54.6231C245.718 81.2572 204.477 95.7302 161.986 95.6263C119.491 95.7024 78.2557 81.2019 45.1616 54.545C42.7992 65.8152 41.6094 77.2995 41.6112 88.8146C41.6112 164.307 92.209 228.221 161.986 249.722Z" stroke="black" stroke-width="29.9051"/>
</svg>
