<svg id="javascript" xmlns="http://www.w3.org/2000/svg" viewBox="0 0 70.408 70.408">
  <path id="Path_24" data-name="Path 24" d="M0,0H70.408V70.408H0Z" fill="#f0db4f"/>
  <path id="Path_25" data-name="Path 25" d="M322.64,498.913c-.515-3.213-2.61-5.91-8.814-8.426-2.155-.991-4.558-1.7-5.274-3.333a3.636,3.636,0,0,1-.127-2.061c.462-1.867,2.69-2.45,4.457-1.914a4.9,4.9,0,0,1,2.865,2.657c3.039-1.968,3.032-1.954,5.153-3.306a13.13,13.13,0,0,0-1.7-2.276c-1.827-2.041-4.317-3.092-8.3-3.012-.689.087-1.385.181-2.075.268a9.412,9.412,0,0,0-4.993,2.945,9.218,9.218,0,0,0,1.673,13.125c4,3,9.865,3.681,10.615,6.485.73,3.433-2.523,4.544-5.756,4.15-2.383-.5-3.708-1.707-5.14-3.909-2.637,1.526-2.637,1.526-5.347,3.085a11.9,11.9,0,0,0,2.4,3.259c5.1,5.174,17.863,4.919,20.152-2.911A9.668,9.668,0,0,0,322.64,498.913Zm-26.37-21.256h-6.586c0,5.689-.027,11.338-.027,17.026,0,3.621.187,6.94-.4,7.958-.964,2-3.46,1.753-4.6,1.365a5.653,5.653,0,0,1-2.429-2.523,3.392,3.392,0,0,0-.375-.6q-2.68,1.636-5.354,3.279a10.583,10.583,0,0,0,3.882,4.444,12.784,12.784,0,0,0,9.41,1.158,8.315,8.315,0,0,0,5.314-4.163c1.5-2.764,1.178-6.111,1.165-9.812C296.3,489.75,296.271,483.713,296.271,477.656Z" transform="translate(-257.994 -445.297)" fill="#323330"/>
</svg>
