<svg xmlns="http://www.w3.org/2000/svg" xmlns:xlink="http://www.w3.org/1999/xlink" viewBox="0 0 118 72.256">
  <defs>
    <linearGradient id="linear-gradient" x1="0.682" y1="0.175" x2="0.278" y2="0.898" gradientUnits="objectBoundingBox">
      <stop offset="0" stop-color="#41873f"/>
      <stop offset="0.329" stop-color="#418b3d"/>
      <stop offset="0.635" stop-color="#419637"/>
      <stop offset="0.932" stop-color="#3fa92d"/>
      <stop offset="1" stop-color="#3fae2a"/>
    </linearGradient>
    <linearGradient id="linear-gradient-2" x1="0.433" y1="0.552" x2="1.592" y2="-0.183" gradientUnits="objectBoundingBox">
      <stop offset="0.138" stop-color="#41873f"/>
      <stop offset="0.403" stop-color="#54a044"/>
      <stop offset="0.714" stop-color="#66b848"/>
      <stop offset="0.908" stop-color="#6cc04a"/>
    </linearGradient>
    <linearGradient id="linear-gradient-3" x1="-44.138" y1="0.134" x2="53.279" y2="0.134" gradientUnits="objectBoundingBox">
      <stop offset="0.092" stop-color="#6cc04a"/>
      <stop offset="0.286" stop-color="#66b848"/>
      <stop offset="0.597" stop-color="#54a044"/>
      <stop offset="0.862" stop-color="#41873f"/>
    </linearGradient>
    <linearGradient id="linear-gradient-4" x1="-0.044" y1="0.5" x2="1.015" y2="0.5" xlink:href="#linear-gradient-3"/>
    <linearGradient id="linear-gradient-5" x1="-97.138" y1="0.362" x2="0.279" y2="0.362" xlink:href="#linear-gradient-3"/>
    <linearGradient id="linear-gradient-6" x1="-1.039" y1="0.503" x2="1.008" y2="0.503" xlink:href="#linear-gradient-3"/>
    <linearGradient id="linear-gradient-7" x1="1.306" y1="-2.111" x2="0.044" y2="2.016" xlink:href="#linear-gradient"/>
  </defs>
  <g id="nodejs" transform="translate(-0.231 0)">
    <path id="Path_40" data-name="Path 40" d="M210.171,216.324a2.34,2.34,0,0,1-1.12-.293l-3.547-2.107c-.534-.294-.267-.4-.107-.453a6.471,6.471,0,0,0,1.6-.72.245.245,0,0,1,.267.027l2.721,1.627a.339.339,0,0,0,.32,0l10.642-6.161a.307.307,0,0,0,.16-.293v-12.3a.307.307,0,0,0-.16-.294L210.3,189.224a.337.337,0,0,0-.32,0l-10.642,6.135a.335.335,0,0,0-.16.293v12.3a.335.335,0,0,0,.16.294l2.907,1.68c1.574.8,2.561-.133,2.561-1.067V196.719a.324.324,0,0,1,.32-.32h1.36a.324.324,0,0,1,.32.32v12.136c0,2.107-1.147,3.334-3.147,3.334a4.575,4.575,0,0,1-2.454-.667l-2.8-1.6a2.251,2.251,0,0,1-1.12-1.947v-12.3a2.251,2.251,0,0,1,1.12-1.947l10.642-6.161a2.381,2.381,0,0,1,2.241,0l10.642,6.161a2.251,2.251,0,0,1,1.12,1.947v12.3a2.251,2.251,0,0,1-1.12,1.947l-10.642,6.161a2.728,2.728,0,0,1-1.12.24Zm3.281-8.455c-4.668,0-5.628-2.134-5.628-3.948a.324.324,0,0,1,.32-.32h1.387a.274.274,0,0,1,.293.267c.213,1.414.827,2.107,3.654,2.107,2.24,0,3.2-.507,3.2-1.707,0-.693-.267-1.2-3.761-1.547-2.907-.294-4.721-.934-4.721-3.254,0-2.161,1.814-3.441,4.854-3.441,3.414,0,5.095,1.174,5.308,3.734a.431.431,0,0,1-.08.24.33.33,0,0,1-.213.107h-1.387a.312.312,0,0,1-.293-.24c-.32-1.467-1.147-1.947-3.334-1.947-2.454,0-2.747.854-2.747,1.494,0,.774.347,1.014,3.654,1.44,3.281.427,4.828,1.04,4.828,3.334C218.759,206.535,216.839,207.868,213.451,207.868Z" transform="translate(-151.58 -144.068)" fill="#539e43"/>
    <path id="Path_41" data-name="Path 41" d="M25.57,24.165a1.357,1.357,0,0,0-.693-1.174L13.567,16.484a1.642,1.642,0,0,0-.613-.187h-.107a1.267,1.267,0,0,0-.613.187L.924,22.992a1.357,1.357,0,0,0-.693,1.174l.027,17.5a.663.663,0,0,0,.347.587.605.605,0,0,0,.667,0l6.721-3.841a1.357,1.357,0,0,0,.693-1.174V29.046a1.357,1.357,0,0,1,.693-1.174l2.854-1.654a1.293,1.293,0,0,1,.693-.187,1.147,1.147,0,0,1,.667.187l2.854,1.654a1.356,1.356,0,0,1,.693,1.174v8.189a1.357,1.357,0,0,0,.693,1.174l6.721,3.841a.651.651,0,0,0,.693,0,.663.663,0,0,0,.347-.587ZM79.929.08a.733.733,0,0,0-.667,0,.7.7,0,0,0-.347.587V18a.48.48,0,0,1-.72.427L75.368,16.8a1.375,1.375,0,0,0-1.36,0L62.7,23.338A1.357,1.357,0,0,0,62,24.512V37.555a1.357,1.357,0,0,0,.694,1.174l11.309,6.535a1.375,1.375,0,0,0,1.36,0l11.309-6.535a1.357,1.357,0,0,0,.693-1.174V5.041a1.368,1.368,0,0,0-.693-1.2L79.929.08Zm-1.04,33.181a.306.306,0,0,1-.16.293l-3.867,2.24a.4.4,0,0,1-.347,0l-3.867-2.24a.334.334,0,0,1-.16-.293V28.78a.306.306,0,0,1,.16-.293l3.867-2.241a.4.4,0,0,1,.347,0l3.867,2.241a.334.334,0,0,1,.16.293v4.481Zm38.675-4.588a1.332,1.332,0,0,0,.667-1.174V24.325a1.389,1.389,0,0,0-.667-1.174l-11.229-6.508a1.375,1.375,0,0,0-1.36,0L93.665,23.178a1.357,1.357,0,0,0-.693,1.174V37.395a1.357,1.357,0,0,0,.693,1.174l11.229,6.4a1.325,1.325,0,0,0,1.334,0l6.8-3.787a.67.67,0,0,0,0-1.174l-11.363-6.535a.7.7,0,0,1-.347-.587V28.807a.663.663,0,0,1,.347-.587l3.548-2.027a.651.651,0,0,1,.694,0l3.547,2.027a.7.7,0,0,1,.347.587v3.2a.663.663,0,0,0,.347.587.651.651,0,0,0,.694,0l6.721-3.921Z" transform="translate(0 0)" fill="#333"/>
    <path id="Path_42" data-name="Path 42" d="M448.647,121.453a.242.242,0,0,1,.267,0l2.161,1.254a.279.279,0,0,1,.133.24v2.507a.28.28,0,0,1-.133.24l-2.161,1.254a.242.242,0,0,1-.267,0l-2.161-1.254a.28.28,0,0,1-.133-.24v-2.507a.279.279,0,0,1,.133-.24Z" transform="translate(-343.165 -93.393)" fill="#539e43"/>
    <g id="Group_15" data-name="Group 15" transform="translate(31.118 14.323)">
      <path id="Path_43" data-name="Path 43" d="M13.718,1.25a1.375,1.375,0,0,0-1.36,0L1.129,7.731A1.332,1.332,0,0,0,.462,8.9v12.99a1.389,1.389,0,0,0,.667,1.174l11.229,6.481a1.375,1.375,0,0,0,1.36,0l11.229-6.481a1.332,1.332,0,0,0,.667-1.174V8.9a1.39,1.39,0,0,0-.667-1.174Z" transform="translate(-0.355 1.124)" fill="url(#linear-gradient)"/>
      <g id="Group_13" data-name="Group 13" transform="translate(0 2.19)">
        <path id="Path_44" data-name="Path 44" d="M11.976,1.235.72,7.716A1.383,1.383,0,0,0,0,8.89V21.88a1.285,1.285,0,0,0,.347.853L12.99,1.075a1.524,1.524,0,0,0-1.014.16ZM13.07,29.668a1.64,1.64,0,0,0,.32-.133l11.256-6.481a1.357,1.357,0,0,0,.693-1.174V8.89a1.359,1.359,0,0,0-.4-.934L13.07,29.668Z" transform="translate(0 -1.051)" fill="none"/>
        <path id="Path_45" data-name="Path 45" d="M25.774,7.887,14.492,1.405a1.852,1.852,0,0,0-.347-.133L1.5,22.93a1.4,1.4,0,0,0,.374.32l11.282,6.481a1.3,1.3,0,0,0,1.04.133L26.068,8.154a1.4,1.4,0,0,0-.294-.267Z" transform="translate(-1.155 -1.221)" fill="url(#linear-gradient-2)"/>
      </g>
      <g id="Group_14" data-name="Group 14" transform="translate(0 0)">
        <path id="Path_46" data-name="Path 46" d="M25.339,21.961V8.972a1.383,1.383,0,0,0-.72-1.174L13.336,1.317a1.178,1.178,0,0,0-.426-.16l12.349,21.1a.538.538,0,0,0,.08-.293ZM.72,7.8A1.384,1.384,0,0,0,0,8.972v12.99a1.442,1.442,0,0,0,.72,1.174L12,29.617a1.256,1.256,0,0,0,.88.16L.8,7.771.72,7.8Z" transform="translate(0 1.057)" fill="none"/>
        <path id="Path_47" data-name="Path 47" d="M49.858.809l-.16.08h.213Z" transform="translate(-38.229 -0.809)" fill-rule="evenodd" fill="url(#linear-gradient-3)"/>
        <path id="Path_48" data-name="Path 48" d="M27.223,32.3a1.517,1.517,0,0,0,.667-.853L15.514,10.321a1.354,1.354,0,0,0-.96.16l-11.2,6.455L15.434,38.967a1.86,1.86,0,0,0,.507-.16L27.223,32.3Z" transform="translate(-2.578 -8.107)" fill-rule="evenodd" fill="url(#linear-gradient-4)"/>
        <path id="Path_49" data-name="Path 49" d="M111.033,104.267l-.08-.133v.187l.08-.053Z" transform="translate(-85.347 -80.289)" fill-rule="evenodd" fill="url(#linear-gradient-5)"/>
        <path id="Path_50" data-name="Path 50" d="M67.586,102.7,56.33,109.184a1.609,1.609,0,0,1-.507.16l.213.4,12.483-7.228v-.16l-.32-.534A1.239,1.239,0,0,1,67.586,102.7Z" transform="translate(-42.94 -78.51)" fill-rule="evenodd" fill="url(#linear-gradient-6)"/>
        <path id="Path_51" data-name="Path 51" d="M67.586,102.7,56.33,109.184a1.609,1.609,0,0,1-.507.16l.213.4,12.483-7.228v-.16l-.32-.534A1.239,1.239,0,0,1,67.586,102.7Z" transform="translate(-42.94 -78.51)" fill-rule="evenodd" fill="url(#linear-gradient-7)"/>
      </g>
    </g>
  </g>
</svg>
